HIERARCHY
ROOT joint_0
{
	OFFSET 0.000000 0.000000 0.000000
	CHANNELS 6 Xposition Yposition Zposition Zrotation Yrotation Xrotation 
	JOINT joint_1
	{
		OFFSET 0.587158 0.057678 95.682007
		CHANNELS 3 Zrotation Yrotation Xrotation
		JOINT joint_2
		{
			OFFSET -7.116699 -0.219910 87.157959
			CHANNELS 3 Zrotation Yrotation Xrotation
			JOINT joint_3
			{
				OFFSET -5.892822 -0.290222 87.151001
				CHANNELS 3 Zrotation Yrotation Xrotation
				JOINT joint_4
				{
					OFFSET 5.544678 -0.099609 123.768066
					CHANNELS 3 Zrotation Yrotation Xrotation
					JOINT joint_5
					{
						OFFSET 41.981201 4.519775 84.257935
						CHANNELS 3 Zrotation Yrotation Xrotation
						End Site
						{
							OFFSET 0.000000 0.000000 0.000000
						}
					}
				}
				JOINT joint_6
				{
					OFFSET 3.940918 -26.976501 69.308105
					CHANNELS 3 Zrotation Yrotation Xrotation
					JOINT joint_7
					{
						OFFSET 4.776123 -152.592468 -16.842041
						CHANNELS 3 Zrotation Yrotation Xrotation
						JOINT joint_8
						{
							OFFSET 54.421875 -30.424072 -248.864014
							CHANNELS 3 Zrotation Yrotation Xrotation
							JOINT joint_9
							{
								OFFSET 42.120117 -33.387878 -236.524963
								CHANNELS 3 Zrotation Yrotation Xrotation
								End Site
								{
									OFFSET 0.000000 0.000000 0.000000
								}
							}
						}
					}
				}
				JOINT joint_10
				{
					OFFSET 2.312012 26.904114 69.425049
					CHANNELS 3 Zrotation Yrotation Xrotation
					JOINT joint_11
					{
						OFFSET 0.971436 152.197815 -20.626953
						CHANNELS 3 Zrotation Yrotation Xrotation
						JOINT joint_12
						{
							OFFSET 49.954102 28.991455 -249.970093
							CHANNELS 3 Zrotation Yrotation Xrotation
							JOINT joint_13
							{
								OFFSET 48.146973 19.598389 -236.919922
								CHANNELS 3 Zrotation Yrotation Xrotation
								End Site
								{
									OFFSET 0.000000 0.000000 0.000000
								}
							}
						}
					}
				}
			}
		}
	}
	JOINT joint_14
	{
		OFFSET 16.305664 -89.442932 -108.224976
		CHANNELS 3 Zrotation Yrotation Xrotation
		JOINT joint_15
		{
			OFFSET -22.282471 13.437134 -412.904968
			CHANNELS 3 Zrotation Yrotation Xrotation
			JOINT joint_16
			{
				OFFSET -45.426025 14.484802 -445.892029
				CHANNELS 3 Zrotation Yrotation Xrotation
				JOINT joint_17
				{
					OFFSET 173.389404 -9.944031 -76.473001
					CHANNELS 3 Zrotation Yrotation Xrotation
					End Site
					{
						OFFSET 0.000000 0.000000 0.000000
					}
				}
			}
		}
	}
	JOINT joint_18
	{
		OFFSET 13.392822 89.408875 -108.653992
		CHANNELS 3 Zrotation Yrotation Xrotation
		JOINT joint_19
		{
			OFFSET -29.032959 24.483521 -411.977966
			CHANNELS 3 Zrotation Yrotation Xrotation
			JOINT joint_20
			{
				OFFSET -30.530029 28.986328 -446.453018
				CHANNELS 3 Zrotation Yrotation Xrotation
				JOINT joint_21
				{
					OFFSET 170.330078 33.400757 -76.698997
					CHANNELS 3 Zrotation Yrotation Xrotation
					End Site
					{
						OFFSET 0.000000 0.000000 0.000000
					}
				}
			}
		}
	}
}
MOTION
Frames: 13
Frame Time: 0.016667
-2918.787842 916.155701 1063.093018 1.546038 2.596525 -0.862736 0.094567 0.166732 1.178249 -0.007796 -0.042156 -0.248803 0.021102 0.034695 0.152022 -3.292346 -9.774380 7.613555 0.000000 0.000000 0.000000 -0.912297 1.906890 1.469707 -1.995363 1.666473 -8.623379 2.765473 -20.724696 0.727269 0.000000 0.000000 0.000000 1.175849 -0.058276 1.734691 1.253039 -0.090283 4.933462 -2.063515 -10.949476 -5.467188 0.000000 0.000000 0.000000 -4.579011 -4.944242 -3.972443 -4.725901 -1.223516 0.134888 -4.405177 3.494682 -1.710377 0.000000 0.000000 0.000000 1.308455 -6.250287 2.917430 1.832461 -0.853340 1.298877 2.337219 5.427465 -0.020319 0.000000 0.000000 0.000000 
-2917.668945 915.757629 1062.850952 1.664954 2.584937 -0.891343 0.028259 0.139401 1.198542 -0.076465 -0.030551 -0.260349 -0.046040 0.037849 0.162320 -3.294484 -9.840826 7.643283 0.000000 0.000000 0.000000 -0.599196 1.514199 1.786813 -1.766362 1.324128 -7.834680 2.062656 -13.802366 1.270905 0.000000 0.000000 0.000000 0.799578 -0.167933 1.233296 0.903835 -0.177991 4.091286 -1.243450 -4.570086 -4.168028 0.000000 0.000000 0.000000 -4.643246 -4.817514 -3.914335 -4.791649 -1.295150 0.140968 -4.462610 3.612524 -1.729003 0.000000 0.000000 0.000000 1.265314 -6.161613 2.964057 1.781683 -0.890935 1.327536 2.288189 5.371237 -0.031174 0.000000 0.000000 0.000000 
-2916.545898 915.324646 1062.597046 1.795127 2.563230 -0.930063 -0.058802 0.144228 1.221734 -0.166387 -0.022240 -0.272316 -0.134280 0.044879 0.174075 -3.296118 -9.918164 7.675178 0.000000 0.000000 0.000000 -0.290180 1.128262 2.075341 -1.495287 0.985158 -6.657492 1.185078 -7.223572 1.046170 0.000000 0.000000 0.000000 0.363291 -0.030449 0.863486 0.510850 -0.023606 2.723783 -0.326810 0.542559 -1.825660 0.000000 0.000000 0.000000 -4.715219 -4.666533 -3.833336 -4.864427 -1.390721 0.132620 -4.527086 3.754483 -1.749317 0.000000 0.000000 0.000000 1.217485 -6.070162 3.025852 1.728111 -0.916026 1.353827 2.235133 5.310260 -0.042905 0.000000 0.000000 0.000000 
-2915.565186 914.920532 1062.396973 1.879756 2.554464 -0.961213 -0.119406 0.154160 1.248450 -0.230109 -0.021336 -0.284456 -0.196360 0.055989 0.184844 -3.297021 -10.000074 7.697421 0.000000 0.000000 0.000000 0.054631 0.956346 2.433977 -1.277776 0.857330 -5.504335 0.371384 -2.082661 0.427901 0.000000 0.000000 0.000000 0.008048 0.218672 0.469220 0.159903 0.233421 1.360995 0.379735 4.019565 0.244833 0.000000 0.000000 0.000000 -4.764016 -4.566781 -3.761094 -4.911645 -1.440654 0.116874 -4.570137 3.850090 -1.762926 0.000000 0.000000 0.000000 1.184158 -6.004922 3.083585 1.692558 -0.922987 1.368059 2.197487 5.248922 -0.047694 0.000000 0.000000 0.000000 
-2914.771729 914.548401 1062.276978 1.892502 2.558573 -0.981313 -0.129263 0.173313 1.281277 -0.243721 -0.029721 -0.298194 -0.208283 0.066288 0.194663 -3.298532 -10.083091 7.709139 0.000000 0.000000 0.000000 0.451942 1.142266 2.699825 -1.031721 1.096250 -4.156739 -0.237056 0.938472 -0.573814 0.000000 0.000000 0.000000 -0.183938 0.597324 0.218644 -0.146984 0.607734 -0.197345 0.769636 5.203433 1.693426 0.000000 0.000000 0.000000 -4.773561 -4.536696 -3.697338 -4.915037 -1.418669 0.080434 -4.577024 3.867912 -1.765194 0.000000 0.000000 0.000000 1.174809 -5.959999 3.128717 1.682172 -0.920486 1.377609 2.183601 5.191535 -0.042664 0.000000 0.000000 0.000000 
-2914.119385 914.206238 1062.209961 1.859303 2.574356 -0.993808 -0.109662 0.198556 1.316615 -0.228033 -0.042384 -0.311270 -0.191032 0.073740 0.203501 -3.301021 -10.165386 7.716591 0.000000 0.000000 0.000000 0.833468 1.537110 2.796283 -0.715100 1.550067 -2.532116 -0.712539 2.591778 -1.874128 0.000000 0.000000 0.000000 -0.257730 1.098262 0.178021 -0.442539 1.095230 -2.029617 0.974916 4.758882 2.877074 0.000000 0.000000 0.000000 -4.759917 -4.556173 -3.642652 -4.892783 -1.351242 0.036488 -4.562418 3.838918 -1.760743 0.000000 0.000000 0.000000 1.180226 -5.939479 3.169359 1.689817 -0.900155 1.375288 2.185096 5.132910 -0.030532 0.000000 0.000000 0.000000 
-2913.611572 913.951416 1062.185059 1.803472 2.624308 -0.993475 -0.078648 0.185378 1.351273 -0.200154 -0.041655 -0.320549 -0.162120 0.069070 0.209119 -3.301577 -10.230640 7.715559 0.000000 0.000000 0.000000 1.086618 1.974952 2.838328 -0.447591 2.034676 -1.133883 -1.062094 3.624930 -2.932293 0.000000 0.000000 0.000000 -0.251528 1.613551 0.139560 -0.659818 1.596496 -3.500202 1.040783 3.991209 3.500292 0.000000 0.000000 0.000000 -4.741013 -4.642137 -3.628531 -4.867502 -1.249606 0.033492 -4.542090 3.790417 -1.754880 0.000000 0.000000 0.000000 1.189929 -5.987450 3.213774 1.713298 -0.832297 1.328738 2.194871 5.063648 -0.012605 0.000000 0.000000 0.000000 
-2913.320801 913.857361 1062.224976 1.713878 2.735961 -0.971180 -0.030845 0.101510 1.387728 -0.154548 -0.005882 -0.326993 -0.115880 0.031479 0.213005 -3.299706 -10.294570 7.708384 0.000000 0.000000 0.000000 1.142641 2.455011 2.760569 -0.221841 2.541844 0.038100 -1.289347 4.102505 -3.757320 0.000000 0.000000 0.000000 -0.133732 2.141175 0.087815 -0.786060 2.105333 -4.467555 0.942409 3.196838 3.331302 0.000000 0.000000 0.000000 -4.717707 -4.846011 -3.694435 -4.843247 -1.085078 0.119856 -4.515811 3.719466 -1.747665 0.000000 0.000000 0.000000 1.202701 -6.170085 3.276113 1.765134 -0.653457 1.186251 2.215532 4.959878 0.016972 0.000000 0.000000 0.000000 
-2913.175781 913.851440 1062.306030 1.601295 2.881679 -0.936392 0.028318 -0.019484 1.423139 -0.096994 0.042763 -0.332956 -0.057785 -0.019157 0.216201 -3.298132 -10.340098 7.700044 0.000000 0.000000 0.000000 1.051688 2.995250 2.543344 -0.013234 3.094935 1.075275 -1.384521 3.947596 -4.381853 0.000000 0.000000 0.000000 0.074203 2.695934 0.090350 -0.845820 2.636584 -5.115774 0.704727 2.086915 2.608508 0.000000 0.000000 0.000000 -4.688322 -5.116855 -3.800431 -4.815309 -0.885755 0.246437 -4.483475 3.630099 -1.738809 0.000000 0.000000 0.000000 1.219438 -6.420705 3.342758 1.832529 -0.427354 0.999406 2.244593 4.846335 0.052218 0.000000 0.000000 0.000000 
-2912.960205 913.774658 1062.343018 1.519659 2.996966 -0.910922 0.064969 -0.119764 1.446254 -0.061477 0.064276 -0.339673 -0.021537 -0.043324 0.220274 -3.296860 -10.301056 7.688012 0.000000 0.000000 0.000000 0.872512 3.490549 2.339533 0.080384 3.587092 1.611857 -1.320258 3.599509 -4.310812 0.000000 0.000000 0.000000 0.269732 3.190815 0.103560 -0.837875 3.114282 -5.350671 0.450614 1.102448 1.759012 0.000000 0.000000 0.000000 -4.666157 -5.313253 -3.860194 -4.792136 -0.747878 0.314497 -4.459897 3.554627 -1.732941 0.000000 0.000000 0.000000 1.234863 -6.578680 3.378583 1.876622 -0.315717 0.892277 2.267808 4.781042 0.075380 0.000000 0.000000 0.000000 
-2912.457031 913.512878 1062.293945 1.510201 3.073885 -0.903373 0.053317 -0.208428 1.444141 -0.073128 0.031204 -0.347302 -0.031957 -0.014188 0.228905 -3.297291 -10.115380 7.672187 0.000000 0.000000 0.000000 0.554918 3.914364 2.165672 -0.018871 3.982464 1.400315 -1.022354 3.209077 -3.007759 0.000000 0.000000 0.000000 0.459988 3.610022 0.160355 -0.749199 3.520657 -5.106628 0.201616 0.367383 0.837315 0.000000 0.000000 0.000000 -4.663077 -5.367556 -3.820045 -4.782236 -0.748658 0.260328 -4.456887 3.514164 -1.734029 0.000000 0.000000 0.000000 1.243755 -6.567559 3.362818 1.872997 -0.435450 0.928857 2.276140 4.803549 0.074682 0.000000 0.000000 0.000000 
-2911.883789 913.180176 1062.201050 1.531865 3.120316 -0.905260 0.019050 -0.276368 1.431005 -0.106966 -0.030901 -0.354064 -0.064630 0.044889 0.236073 -3.297253 -9.846734 7.649882 0.000000 0.000000 0.000000 0.150360 4.287738 1.995627 -0.248600 4.309959 0.679620 -0.576807 2.647647 -1.005953 0.000000 0.000000 0.000000 0.643248 3.965150 0.253620 -0.593107 3.866241 -4.482829 -0.062488 -0.247554 -0.202075 0.000000 0.000000 0.000000 -4.667856 -5.347174 -3.733430 -4.777532 -0.811062 0.147830 -4.462859 3.486596 -1.738276 0.000000 0.000000 0.000000 1.251438 -6.464107 3.316194 1.846152 -0.669526 1.045345 2.278593 4.873850 0.061978 0.000000 0.000000 0.000000 
-2911.668945 912.958008 1062.097046 1.516411 3.094637 -0.912650 0.001866 -0.241221 1.429362 -0.124434 -0.077317 -0.351810 -0.082181 0.094116 0.234848 -3.285644 -9.616462 7.605762 0.000000 0.000000 0.000000 -0.123781 4.583969 1.882330 -0.480372 4.569140 -0.137390 -0.185010 1.909944 0.576251 0.000000 0.000000 0.000000 0.717951 4.209559 0.295756 -0.409251 4.115053 -3.671830 -0.278257 -0.688424 -1.072685 0.000000 0.000000 0.000000 -4.661109 -5.309625 -3.675759 -4.763445 -0.803031 0.072234 -4.458587 3.436490 -1.739344 0.000000 0.000000 0.000000 1.268564 -6.337095 3.265924 1.830840 -0.827288 1.173033 2.286611 4.921587 0.056148 0.000000 0.000000 0.000000 
